<?xml version="1.0" standalone="no"?><!DOCTYPE svg PUBLIC "-//W3C//DTD SVG 1.1//EN" "http://www.w3.org/Graphics/SVG/1.1/DTD/svg11.dtd"><svg class="icon" width="200px" height="200.00px" viewBox="0 0 1024 1024" version="1.1" xmlns="http://www.w3.org/2000/svg"><path d="M921.7 346.7c-6.2-8.4-18-10.2-26.4-4-0.3 0.2-0.5 0.4-0.8 0.6-7.7 6.3-9.3 17.6-3.3 25.7 21.1 28.5 32.3 62.4 32.3 98v100.9c0 14.6-5.7 28.3-16.1 38.6-10.4 10.3-24.2 16-38.9 16-30.7 0-57.6-21.2-64.6-50.7V471.1c0-10.4-8.5-18.8-18.9-18.8s-18.9 8.4-18.9 18.8V584.6c0 52.1-39.9 95.1-91 100.4v-77c0-10.4-8.5-18.8-18.9-18.8-10.4 0-18.9 8.4-18.9 18.8v14.5h-42V559.6c0-10.4-8.5-18.8-18.9-18.8-10.4 0-18.9 8.4-18.9 18.8V897c0 7-5.8 12.8-12.9 12.8h-66.2c-7.1 0-12.9-5.7-12.9-12.8v-47.6h27.2c10.4 0 18.9-8.4 18.9-18.8s-8.5-18.8-18.9-18.8h-27.2v-19.2h27.2c10.4 0 18.9-8.4 18.9-18.8s-8.5-18.8-18.9-18.8h-27.2v-19.2h27.2c10.4 0 18.9-8.4 18.9-18.8s-8.5-18.8-18.9-18.8h-27.2V559.6c0-10.4-8.5-18.8-18.9-18.8-10.4 0-18.9 8.4-18.9 18.8V622.5h-42V608c0-10.4-8.5-18.8-18.9-18.8s-18.9 8.4-18.9 18.8v77c-51-5.3-91-48.3-91-100.4V471.1c0-10.4-8.5-18.8-18.9-18.8s-18.9 8.4-18.9 18.8v100.3c-6.9 29.7-33.8 51.1-64.7 51.1-14.7 0-28.5-5.7-38.9-16-10.4-10.3-16.1-24-16.1-38.6v-101c0-79.8 58-147.4 134.4-162.4-10 29.7-15.1 60.7-15.1 92.6 0 10.4 8.5 18.8 18.9 18.8 10.4 0 18.9-8.4 18.9-18.8 0-37.2 7.9-73.1 23.6-106.6 19-40.6 48.1-75.1 84.7-100.7l131.6 172.1c3.6 4.7 9.1 7.4 15.1 7.4 5.9 0 11.5-2.7 15-7.4l131.6-172.1c36.7 25.6 65.8 60.2 84.7 100.7 15.6 33.5 23.6 69.4 23.6 106.6 0 10.4 8.5 18.8 18.9 18.8s18.9-8.4 18.9-18.8c0-31.9-5.1-62.9-15.1-92.6 18.1 3.5 35.6 10 51.5 19.3 3 1.7 6.3 2.6 9.5 2.6 6.2 0 12.2-3.1 15.8-8.5 0.2-0.3 0.4-0.5 0.5-0.8 5.3-9 2.2-20.5-6.8-25.7-26.7-15.5-56.8-24.7-87.7-27-24.7-48-62.1-88-108.8-116.1-14.2-8.6-29.2-15.9-44.6-22 4.9-6.5 9.8-13.3 14.3-20.4 5.6-8.7 3.1-20.4-5.7-26-8.8-5.6-20.5-3-26.1 5.7-6.3 9.9-13.4 19.1-20.8 28.6-22.5-5.4-45.6-8.1-68.9-8.1-23.2 0-46.2 2.7-68.6 8.1-7.8-10.3-14.9-20-21.6-29.4-6.1-8.4-17.9-10.4-26.4-4.4s-10.5 17.8-4.4 26.2c4.5 6.3 9.2 12.8 14.2 19.5-15.6 6.1-30.7 13.5-45 22.1-46.6 28.1-84 68.1-108.8 116.1-49.4 3.6-95.4 24.6-130.5 60-37.9 38.2-58.7 88.9-58.7 142.5v100.9c0 24.6 9.6 47.8 27.2 65.2 17.5 17.4 40.8 27 65.6 27 27.9 0 53.7-11.1 72.6-29.4 18 50.7 64.9 87.9 120.8 92.1v19.1c0 15.6 6.1 30.3 17.2 41.3 11.1 11 25.9 17.1 41.6 17.1 7.4 0 14.5-1.4 21-3.9V897c0 27.8 22.7 50.4 50.7 50.4h66.1c27.9 0 50.7-22.6 50.7-50.4V796.5c6.6 2.5 13.7 3.8 21 3.8 32.4 0 58.8-26.2 58.8-58.5v-19.1c56-4.2 102.8-41.4 120.8-92 19 18.3 44.8 29.4 72.6 29.4 24.8 0 48.1-9.6 65.6-27 17.5-17.4 27.2-40.6 27.2-65.2v-101c0.4-43.6-13.3-85.2-39.3-120.2z" fill="#2E0C08" /><path d="M850.4 326.4c-3.2 0-6.5-0.8-9.5-2.6-16-9.3-33.4-15.8-51.5-19.3 10 29.7 15.1 60.7 15.1 92.6 0 10.4-8.5 18.8-18.9 18.8-10.4 0-18.9-8.4-18.9-18.8 0-37.2-7.9-73.1-23.6-106.6-19-40.6-48.1-75.1-84.7-100.7l-131.7 172c-3.6 4.7-9.1 7.4-15 7.4s-11.5-2.7-15.1-7.4l-131.5-172c-36.7 25.6-65.8 60.1-84.7 100.7-15.6 33.5-23.6 69.4-23.6 106.6 0 10.4-8.5 18.8-18.9 18.8s-18.9-8.4-18.9-18.8c0-31.9 5.1-62.9 15.1-92.6-76.3 15-134.4 82.6-134.4 162.4v100.9c0 14.6 5.7 28.3 16.1 38.6 10.4 10.3 24.2 16 38.9 16 30.9 0 57.8-21.4 64.7-51.1V471.1c0-10.4 8.5-18.8 18.9-18.8s18.9 8.4 18.9 18.8v113.6c0 52.1 39.9 95.1 91 100.4V608c0-10.4 8.5-18.8 18.9-18.8 10.4 0 18.9 8.4 18.9 18.8v14.5h42V559.6c0-10.4 8.5-18.8 18.9-18.8s18.9 8.4 18.9 18.8v138.6H493c10.4 0 18.9 8.4 18.9 18.8s-8.5 18.8-18.9 18.8h-27.2V755H493c10.4 0 18.9 8.4 18.9 18.8s-8.5 18.8-18.9 18.8h-27.2v19.2H493c10.4 0 18.9 8.4 18.9 18.8s-8.5 18.8-18.9 18.8h-27.2V897c0 7 5.8 12.8 12.9 12.8h66.1c7.1 0 12.9-5.7 12.9-12.8V559.6c0-10.4 8.5-18.8 18.9-18.8 10.4 0 18.9 8.4 18.9 18.8V622.5h42V608c0-10.4 8.5-18.8 18.9-18.8s18.9 8.4 18.9 18.8v77c51-5.3 91-48.3 91-100.4V471.1c0-10.4 8.5-18.8 18.9-18.8s18.9 8.4 18.9 18.8v100.7c7 29.5 33.9 50.7 64.6 50.7 14.7 0 28.5-5.7 38.9-16 10.4-10.3 16.1-24 16.1-38.6v-101c0-35.6-11.2-69.4-32.3-98-6-8.1-4.5-19.4 3.3-25.7-8.6-9.4-18.1-17.9-28.4-25.4-3.7 5.5-9.7 8.6-15.9 8.6z" fill="#BCE5E5" /><path d="M428.6 157.5c11.6 15.2 23.4 30.3 34.9 45 11 14 22.3 28.5 33.1 42.7 0.4 0.6 0.9 1.1 1.4 1.7l0.1 0.1 0.4 0.4 0.9 0.9 0.2 0.2c0.2 0.1 0.4 0.3 0.6 0.4 0.2 0.1 0.3 0.2 0.4 0.4 0.2 0.1 0.3 0.2 0.5 0.3 0.1 0.1 0.2 0.1 0.2 0.2 0.1 0.1 0.2 0.1 0.3 0.2 0.5 0.3 1.1 0.6 1.6 0.9 0.1 0 0.2 0.1 0.3 0.1l1.5 0.6c0.1 0 0.1 0.1 0.2 0.1s0.2 0.1 0.3 0.1c1.2 0.4 2.5 0.7 3.7 0.9h0.4c0.6 0.1 1.3 0.1 1.9 0.1 0.7 0 1.3 0 2-0.1h0.4c0.6-0.1 1.3-0.2 1.9-0.3h0.1c0.6-0.2 1.3-0.3 1.9-0.6h0.1c0.1 0 0.2-0.1 0.3-0.1l1.5-0.6c0.1 0 0.2-0.1 0.3-0.1 0.1 0 0.1-0.1 0.2-0.1 0.5-0.3 1.1-0.6 1.6-0.9 0 0 0.1 0 0.1-0.1 0.2-0.1 0.3-0.2 0.5-0.3 0.2-0.1 0.4-0.3 0.7-0.5 0.1-0.1 0.2-0.2 0.3-0.2l0.3-0.3c0.2-0.1 0.3-0.3 0.5-0.4 0.3-0.2 0.5-0.5 0.8-0.7l0.4-0.4 0.3-0.3c0.3-0.3 0.5-0.6 0.7-0.9l0.3-0.3c0.1-0.1 0.1-0.1 0.1-0.2 0.1-0.1 0.2-0.2 0.3-0.4 9.4-13 18.9-24.7 29-37.1 9.2-11.3 18.7-22.9 28.2-35.8 0.1-0.1 0.2-0.3 0.3-0.4 3.3-4.8 6.7-9.4 10.1-13.9 10.6 3.6 20.9 7.9 30.9 12.9l-114 149-114-149c10.1-5.3 20.4-9.6 31-13.2z" fill="#A6CB70" /><path d="M553.7 149.7c-8.9 12.1-18.1 23.3-26.9 34.1-5 6.2-10.1 12.4-15.3 18.9-6.1-7.8-12.2-15.7-18.2-23.4-8.2-10.5-16.6-21.3-24.9-32.1 14.3-2.4 28.7-3.7 43.3-3.7 14.7 0 29.3 1.3 43.7 3.7-0.6 1-1.2 1.7-1.7 2.5z" fill="#F6442C" /><path d="M392.1 756.6c-4-3.9-6.1-9.2-6.1-14.8V660h42v81.8c0 11.5-9.4 20.9-21 20.9-5.7 0-10.9-2.1-14.9-6.1zM616.4 762.7c-5.6 0-10.9-2.2-14.8-6.1-4-3.9-6.1-9.2-6.1-14.8V660h42v81.8c-0.1 11.6-9.5 20.9-21.1 20.9z" fill="#F2F2F2" /><path d="M408.3 405c-22.8 0-42.2 14.3-49.9 34.3h-10.8c-10.4 0-18.9 8.4-18.9 18.8s8.5 18.8 18.9 18.8h26.2c10.4 0 18.9-8.4 18.9-18.8 0-8.5 7-15.5 15.5-15.5 8.6 0 15.6 6.9 15.6 15.5 0 10.4 8.5 18.8 18.9 18.8s18.9-8.4 18.9-18.8c0-29.3-23.9-53.1-53.3-53.1zM671.6 439.3h-10.8c-7.6-20-27.1-34.3-49.9-34.3-29.4 0-53.4 23.8-53.4 53.1 0 10.4 8.5 18.8 18.9 18.8 10.4 0 18.9-8.4 18.9-18.8 0-8.5 7-15.5 15.6-15.5s15.5 6.9 15.5 15.5c0 10.4 8.5 18.8 18.9 18.8h26.2c10.4 0 18.9-8.4 18.9-18.8s-8.3-18.8-18.8-18.8z" fill="#2E0C08" /></svg>