<?xml version="1.0" standalone="no"?><!DOCTYPE svg PUBLIC "-//W3C//DTD SVG 1.1//EN" "http://www.w3.org/Graphics/SVG/1.1/DTD/svg11.dtd"><svg class="icon" width="200px" height="174.60px" viewBox="0 0 1173 1024" version="1.1" xmlns="http://www.w3.org/2000/svg"><path d="M1112.657963 57.480249a116.227193 116.227193 0 0 0-76.640333-32.997921c-44.706861 0-81.962578 31.933472-119.218295 72.382537-90.47817-62.802495-206.503119-96.864865-329.97921-96.864865s-239.50104 34.06237-329.97921 96.864865c-36.191268-40.449064-74.511435-72.382536-119.218295-72.382537a114.183451 114.183451 0 0 0-76.640333 32.997921c-42.577963 38.320166-63.866944 81.962578-60.673597 126.669439 3.193347 47.900208 35.126819 92.607069 92.607069 135.185031a464.866195 464.866195 0 0 0-18.095634 128.798337c0 199.051975 102.18711 334.237006 191.600831 414.070686 35.126819 101.122661 187.343035 161.796258 320.399169 161.796258 134.120582 0 288.465696-60.673597 321.463617-163.925156 88.349272-79.83368 190.536383-213.954262 190.536383-411.941788a464.844906 464.844906 0 0 0-18.095634-128.798337c57.480249-42.577963 88.349272-87.284823 92.607068-135.185031 3.193347-44.706861-18.095634-88.349272-60.673596-126.669439z" fill="#2D2413" /><path d="M907.229938 156.474012c-68.12474 80.898129-64.931393 141.571726-11.70894 184.149689s55.351351 25.546778 146.893971-32.997921c133.056133-86.220374 114.960499-167.118503 48.964657-225.663202s-112.831601-9.580042-184.149688 74.511434z" fill="#8F5322" /><path d="M927.443825 201.180873c-55.351351 54.286902 5.322245 118.153846 72.382537 79.83368 94.735967-54.286902 88.349272-100.058212 50.029106-136.24948-37.255717-35.126819-56.4158-9.580042-122.411643 56.4158z" fill="#472B13" /><path d="M266.420956 156.474012c68.12474 80.898129 64.931393 141.571726 11.70894 184.149689s-55.351351 25.546778-146.893971-32.997921c-133.056133-86.220374-114.960499-167.118503-48.964657-225.663202s113.906694-9.580042 184.149688 74.511434z" fill="#8F5322" /><path d="M246.196424 201.180873c55.351351 54.286902-5.322245 118.153846-72.382536 79.83368-94.735967-54.286902-88.349272-100.058212-50.029106-136.24948 38.330811-35.126819 56.426445-9.580042 122.411642 56.4158z" fill="#472B13" /><path d="M106.753597 448.133056c0-271.434511 235.243243-416.199584 480.066528-416.199584s480.066528 144.765073 480.066528 416.199584c0 370.428274-381.072765 538.611227-482.195426 538.611227-100.058212-1.064449-477.93763-169.247401-477.93763-538.611227z" fill="#8F5322" /><path d="M106.753597 448.133056c0-271.434511 235.243243-416.199584 480.066528-416.199584s480.066528 144.765073 480.066528 416.199584c0 370.428274-381.072765 538.611227-482.195426 538.611227-100.058212-1.064449-477.93763-169.247401-477.93763-538.611227z" fill="#8F5322" /><path d="M1077.541788 721.696466l-127.733888-7.451144a8.004657 8.004657 0 1 1 1.064449-15.966736l126.669439 7.451144a8.228191 8.228191 0 0 1 7.451143 8.515592 7.280832 7.280832 0 0 1-7.451143 7.451144zM1054.113264 817.496881a3.906528 3.906528 0 0 1-3.193347-1.064449l-126.669439-58.544698a7.855634 7.855634 0 0 1 7.451144-13.837838l126.669438 58.544699a7.376632 7.376632 0 0 1 3.193347 10.64449 7.121164 7.121164 0 0 1-7.451143 4.257796zM998.761913 894.137214a8.132391 8.132391 0 0 1-5.322246-2.128898l-98.993763-95.800416a7.525655 7.525655 0 0 1 10.644491-10.64449l98.993763 95.800415a7.11052 7.11052 0 0 1 0 10.644491 8.132391 8.132391 0 0 1-5.322245 2.128898z" fill="#231F20" /><path d="M97.173555 721.696466a7.280832 7.280832 0 0 1-7.451143-7.451144 9.037173 9.037173 0 0 1 7.451143-8.515592l126.669439-7.451144c3.193347-1.064449 7.451143 3.193347 8.515592 7.451144a9.037173 9.037173 0 0 1-7.451143 8.515592l-127.733888 7.451144zM119.53763 817.496881a10.772225 10.772225 0 0 1-7.451144-4.257796 8.270769 8.270769 0 0 1 3.193348-10.64449l126.669438-58.544699a7.855634 7.855634 0 0 1 7.451144 13.837838l-126.669439 58.544698a3.917173 3.917173 0 0 1-3.193347 1.064449zM174.888981 894.137214a8.132391 8.132391 0 0 1-5.322245-2.128898 7.11052 7.11052 0 0 1 0-10.644491l98.993763-95.800415a7.525655 7.525655 0 0 1 10.644491 10.64449l-98.993763 95.800416a8.143035 8.143035 0 0 1-5.322246 2.128898z" fill="#231F20" /><path d="M398.423285 381.072765a23.630769 23.630769 0 0 0-4.257796-5.322245 23.247568 23.247568 0 0 1-4.257797-5.322246l-5.322245-5.322245a23.0879 23.0879 0 0 0-7.451143-6.386694 74.681746 74.681746 0 0 0-9.580042-6.386695 147.883909 147.883909 0 0 0-22.35343-11.708939 238.43659 238.43659 0 0 0-48.964657-12.773389 170.567318 170.567318 0 0 0-23.41788-2.128898 3.395593 3.395593 0 0 1-3.193347-3.193347c0-1.064449 1.064449-2.128898 2.128898-3.193348a234.412973 234.412973 0 0 1 78.769231-4.257796 149.171892 149.171892 0 0 1 29.804574 6.386694c4.257796 2.128898 9.580042 3.193347 13.837838 5.322246a41.300624 41.300624 0 0 1 11.708939 6.386694 93.575717 93.575717 0 0 1 10.644491 6.386695 22.278919 22.278919 0 0 0 6.386694 4.257796 38.320166 38.320166 0 0 1 5.322246 4.257796 22.77921 22.77921 0 0 1-27.675676 36.191268c-0.010644-1.064449-1.075094-2.128898-2.128898-3.193347zM745.423035 348.074844a23.60948 23.60948 0 0 0 5.322246-4.257796c2.128898-1.064449 4.257796-3.193347 6.386694-4.257796a93.575717 93.575717 0 0 1 10.644491-6.386695c4.257796-2.128898 7.451143-4.257796 11.708939-6.386694s8.515593-3.193347 13.837838-5.322246a149.108025 149.108025 0 0 1 29.804574-6.386694 238.308857 238.308857 0 0 1 78.769231 4.257796c1.064449 0 2.128898 2.128898 2.128898 3.193348s-1.064449 2.128898-3.193347 2.128898a170.567318 170.567318 0 0 0-23.41788 2.128898 196.465364 196.465364 0 0 0-48.964657 12.773389 110.117256 110.117256 0 0 0-22.35343 11.708939l-9.580042 6.386695c-2.128898 2.128898-5.322245 4.257796-7.451143 6.386694l-5.322245 5.322245c-2.128898 2.128898-3.193347 4.257796-4.257797 5.322246a38.384033 38.384033 0 0 1-4.257796 5.322245 22.694054 22.694054 0 1 1-35.126819-28.740125c2.139543 0 3.193347-2.128898 5.322245-3.193347z" fill="#6B3F18" /><path d="M882.747609 818.561331c0 103.251559-159.66736 172.440748-295.91684 172.440748s-295.91684-69.189189-295.91684-172.440748 206.503119-175.634096 295.91684-175.634096 295.91684 72.382536 295.91684 175.634096z" fill="#E7D0BB" /><path d="M699.66237 702.536383c0 47.900208-88.349272 87.284823-112.831601 87.284823s-112.831601-39.384615-112.831601-87.284823c1.053805-23.417879 225.663202-24.482328 225.663202 0z" fill="#9D4A33" /><path d="M494.223701 927.135135h-9.580042c-35.126819-4.257796-56.4158-26.611227-56.4158-59.609147a13.837838 13.837838 0 1 1 27.675675 0 31.699293 31.699293 0 0 0 32.997921 32.997921c34.06237 3.193347 77.704782-19.160083 86.220375-58.544699l12.773388-61.738046 12.773389 61.738046c8.515593 39.384615 52.158004 61.738046 86.220374 58.544699a31.699293 31.699293 0 0 0 32.997921-32.997921 13.837838 13.837838 0 1 1 27.675676 0 57.416383 57.416383 0 0 1-56.4158 59.609147 112.203576 112.203576 0 0 1-102.187111-47.900208 122.113597 122.113597 0 0 1-94.735966 47.900208z" fill="#231F20" /><path d="M697.522827 493.904366h3.193348a26.462204 26.462204 0 0 0 8.515592-1.064449 214.231019 214.231019 0 0 1 27.675676-1.064449 318.17447 318.17447 0 0 1 84.091476 11.708939 183.436507 183.436507 0 0 1 22.35343 7.451144 118.015468 118.015468 0 0 1 20.224532 9.580042c6.386694 4.257796 12.773389 6.386694 18.095635 10.64449a182.02079 182.02079 0 0 1 14.902286 11.70894c4.257796 4.257796 8.515593 7.451143 11.70894 10.644491s5.322245 7.451143 7.451144 9.580041c4.257796 5.322245 6.386694 8.515593 6.386694 8.515593l-18.095634 13.837837a65.293306 65.293306 0 0 0-6.386694-5.322245 46.314179 46.314179 0 0 0-7.451144-6.386694c-3.193347-2.128898-7.451143-4.257796-10.644491-6.386695-4.257796-2.128898-8.515593-4.257796-13.837837-6.386694-4.257796-2.128898-10.644491-3.193347-15.966736-5.322245s-11.70894-2.128898-18.095634-4.257797c-6.386694-1.064449-12.773389-1.064449-19.160084-2.128898a349.373472 349.373472 0 0 0-70.253638 5.322246c-9.580042 2.128898-17.031185 4.257796-22.35343 5.322245a33.274678 33.274678 0 0 0-7.451144 2.128898zM461.215135 563.093555s-3.193347-1.064449-7.451143-2.128898a175.410561 175.410561 0 0 0-22.353431-5.322245 241.874761 241.874761 0 0 0-70.253638-5.322246c-6.386694 1.064449-12.773389 1.064449-19.160083 2.128898a111.266861 111.266861 0 0 0-18.095634 4.257797c-5.322245 2.128898-11.70894 3.193347-15.966736 5.322245s-9.580042 4.257796-13.837838 6.386694a93.575717 93.575717 0 0 0-10.644491 6.386695 46.314179 46.314179 0 0 0-7.451143 6.386694 65.186861 65.186861 0 0 0-6.386694 5.322246l-18.095635-13.837838s2.128898-3.193347 6.386695-8.515593c2.128898-2.128898 4.257796-6.386694 7.451143-9.580041a116.567817 116.567817 0 0 1 11.70894-10.644491 182.02079 182.02079 0 0 1 14.902287-11.70894 101.122661 101.122661 0 0 1 18.095634-10.64449 173.675509 173.675509 0 0 1 20.224532-9.580042 183.287484 183.287484 0 0 1 22.353431-7.451143 369.363825 369.363825 0 0 1 84.091476-11.70894 197.785281 197.785281 0 0 1 27.675675 1.064449c3.193347 0 6.386694 1.064449 8.515593 1.064449h3.193347z" fill="#010101" /><path d="M793.323243 629.089397h19.160083a220.702869 220.702869 0 0 1 42.577963 4.257796 185.437672 185.437672 0 0 1 23.417879 5.322246c7.451143 2.128898 14.902287 5.322245 21.288982 7.451143a23.183701 23.183701 0 0 1 8.515592 5.322245 61.078087 61.078087 0 0 0 7.451144 4.257797 48.677256 48.677256 0 0 0 6.386694 4.257796 29.080748 29.080748 0 1 1-32.997921 47.900208l-6.386694-6.386695-2.128898-3.193347-2.128899-2.128898c-1.064449-1.064449-1.064449-2.128898-2.128898-3.193347s-1.064449-2.128898-3.193347-4.257796c-2.128898-1.064449-3.193347-3.193347-5.322245-4.257797-2.128898-2.128898-4.257796-3.193347-6.386695-5.322245-5.322245-3.193347-10.644491-7.451143-17.031185-10.644491-12.773389-6.386694-25.546778-12.773389-36.191268-17.031185a144.179626 144.179626 0 0 0-17.031185-6.386694 7.610811 7.610811 0 0 1-5.322245-9.580042 7.770478 7.770478 0 0 1 7.451143-6.386694zM389.897048 643.991684a144.137048 144.137048 0 0 0-17.031185 6.386694 268.400832 268.400832 0 0 0-36.191268 17.031185c-6.386694 3.193347-11.70894 7.451143-17.031185 10.644491-3.193347 1.064449-4.257796 3.193347-6.386695 5.322245s-4.257796 3.193347-5.322245 4.257797c-2.128898 1.064449-2.128898 3.193347-3.193347 4.257796s-1.064449 2.128898-2.128898 3.193347l-2.128899 2.128898-2.128898 3.193347a28.953015 28.953015 0 1 1-46.835759-34.06237l6.386695-6.386694a48.624033 48.624033 0 0 0 6.386694-4.257796 46.29289 46.29289 0 0 1 7.451144-4.257797c3.193347-1.064449 5.322245-4.257796 8.515592-5.322245 6.386694-2.128898 13.837838-5.322245 21.288981-7.451143 7.451143-1.064449 15.966736-4.257796 23.41788-5.322246 15.966736-2.128898 30.869023-3.193347 42.577962-4.257796h19.160084a8.228191 8.228191 0 0 1 7.451143 8.515593c1.064449 3.193347-1.053805 5.322245-4.257796 6.386694z" fill="#DC7D27" /></svg>