<?xml version="1.0" standalone="no"?><!DOCTYPE svg PUBLIC "-//W3C//DTD SVG 1.1//EN" "http://www.w3.org/Graphics/SVG/1.1/DTD/svg11.dtd"><svg class="icon" width="200px" height="200.00px" viewBox="0 0 1024 1024" version="1.1" xmlns="http://www.w3.org/2000/svg"><path d="M249.75 391.38l-59.5-120.69a25.5 25.5 0 0 1 24.8-36.41l184.51 12.89" fill="#FFFFFF" /><path d="M235.49 398.41L175.9 277.54a41.41 41.41 0 0 1 40.26-59.13l184.5 12.9-2.21 31.69-184.51-12.9a9.6 9.6 0 0 0-9.37 13.63L264 384.35z" fill="#01040A" /><path d="M770.12 390.28l60.25-119.79a25.51 25.51 0 0 0-24.82-36.4l-184.5 13" fill="#FFFFFF" /><path d="M784.32 397.43l-28.41-14.3 60.16-119.6a9.61 9.61 0 0 0-9.4-13.58l-184.5 13-2.24-31.73 184.5-13a41.41 41.41 0 0 1 40.3 59.1l-0.16 0.31z" fill="#01040A" /><path d="M510.19 512m-286.95 0a286.95 286.95 0 1 0 573.9 0 286.95 286.95 0 1 0-573.9 0Z" fill="#FFCE0C" /><path d="M510.15 814.85c-49 0-93.62-8-132.59-23.66-37.25-15-69.33-37.05-95.34-65.49-49-53.53-74.85-127.39-74.88-213.6a302.86 302.86 0 0 1 302.76-303h0.1A302.86 302.86 0 0 1 813 511.9c0 86.22-25.82 160.1-74.74 213.66-26 28.46-58.06 50.51-95.3 65.54-39 15.74-83.65 23.73-132.71 23.75z m0-573.89h-0.08a271 271 0 0 0-271 271.12c0 78.14 23 144.59 66.54 192.16 22.77 24.9 51 44.23 83.76 57.45C424.62 775.86 465.23 783 510.14 783h0.14c45 0 85.61-7.22 120.81-21.43 32.8-13.24 61-32.59 83.73-57.5 43.47-47.6 66.44-114.06 66.41-192.19a271 271 0 0 0-271-271z" fill="#191007" /><path d="M374.92 458.56a42.3 19.23 0 1 0 84.6 0 42.3 19.23 0 1 0-84.6 0Z" fill="#191007" /><path d="M567.2 458.5a42.3 19.23 0 1 0 84.6 0 42.3 19.23 0 1 0-84.6 0Z" fill="#191007" /><path d="M524.06 617.2l28.26-36.29a17.54 17.54 0 0 0-13.85-28.32h-56.53a17.54 17.54 0 0 0-13.83 28.33l28.28 36.27a17.53 17.53 0 0 0 27.67 0.01z" fill="#191007" /><path d="M134.19 523.78l218.23 49.71" fill="#FFCE0C" /><path d="M352.43 584.09a10.6 10.6 0 0 1-2.36-0.26l-218.23-49.71a10.6 10.6 0 1 1 4.71-20.67l218.23 49.7a10.6 10.6 0 0 1-2.35 20.94z" fill="#191007" /><path d="M131.42 621.78l223.82-0.07" fill="#FFCE0C" /><path d="M131.42 632.38a10.6 10.6 0 1 1 0-21.2l223.82-0.07a10.6 10.6 0 0 1 0 21.2l-223.82 0.07z" fill="#191007" /><path d="M134.9 722.43l216.91-55.16" fill="#FFCE0C" /><path d="M134.89 733a10.6 10.6 0 0 1-2.61-20.88L349.2 657a10.6 10.6 0 1 1 5.22 20.55l-216.91 55.16a10.81 10.81 0 0 1-2.62 0.29z" fill="#191007" /><path d="M889.75 523.55l-218.2 49.84" fill="#FFCE0C" /><path d="M671.54 584a10.6 10.6 0 0 1-2.35-20.94l218.2-49.84a10.6 10.6 0 0 1 4.72 20.67l-218.2 49.85a10.75 10.75 0 0 1-2.37 0.26z" fill="#191007" /><path d="M892.58 621.54l-223.82 0.07" fill="#FFCE0C" /><path d="M668.76 632.21a10.6 10.6 0 0 1 0-21.2l223.82-0.07a10.6 10.6 0 0 1 0 21.2l-223.82 0.07z" fill="#191007" /><path d="M889.17 722.2l-216.95-55.03" fill="#FFCE0C" /><path d="M889.17 732.8a10.67 10.67 0 0 1-2.61-0.33l-216.95-55a10.6 10.6 0 0 1 5.21-20.56l216.95 55a10.6 10.6 0 0 1-2.6 20.88z" fill="#191007" /></svg>