<?xml version="1.0" standalone="no"?><!DOCTYPE svg PUBLIC "-//W3C//DTD SVG 1.1//EN" "http://www.w3.org/Graphics/SVG/1.1/DTD/svg11.dtd"><svg class="icon" width="200px" height="200.00px" viewBox="0 0 1024 1024" version="1.1" xmlns="http://www.w3.org/2000/svg"><path d="M254.4 277.6m-224 0a224 224 0 1 0 448 0 224 224 0 1 0-448 0Z" fill="#555656" /><path d="M254.4 521.6C120 521.6 10.4 412.8 10.4 277.6S120 33.6 254.4 33.6s244 109.6 244 244-109.6 244-244 244z m0-448C141.6 73.6 50.4 165.6 50.4 277.6s91.2 204 204 204 204-91.2 204-204S366.4 73.6 254.4 73.6z"  /><path d="M294.4 317.6m-80 0a80 80 0 1 0 160 0 80 80 0 1 0-160 0Z" fill="#F29C8F" /><path d="M294.4 409.6c-50.4 0-92-41.6-92-92s41.6-92 92-92 92 41.6 92 92-41.6 92-92 92z m0-160c-37.6 0-68 30.4-68 68s30.4 68 68 68 68-30.4 68-68-30.4-68-68-68z"  /><path d="M766.4 277.6m-224 0a224 224 0 1 0 448 0 224 224 0 1 0-448 0Z" fill="#555656" /><path d="M766.4 521.6c-134.4 0-244-109.6-244-244S632 33.6 766.4 33.6s244 109.6 244 244-109.6 244-244 244z m0-448c-112.8 0-204 91.2-204 204s91.2 204 204 204 204-91.2 204-204S878.4 73.6 766.4 73.6z"  /><path d="M718.4 317.6m-80 0a80 80 0 1 0 160 0 80 80 0 1 0-160 0Z" fill="#F29C8F" /><path d="M718.4 409.6c-50.4 0-92-41.6-92-92s41.6-92 92-92 92 41.6 92 92-41.6 92-92 92z m0-160c-37.6 0-68 30.4-68 68s30.4 68 68 68 68-30.4 68-68-30.4-68-68-68z"  /><path d="M528 944c-13.6 15.2-37.6 15.2-51.2 0-85.6-90.4-332-376.8-285.6-496 70.4-181.6 540.8-194.4 623.2 0 48 114.4-203.2 405.6-286.4 496z" fill="#555656" /><path d="M502.4 975.2c-15.2 0-29.6-6.4-40-16.8-53.6-56.8-133.6-150.4-194.4-240-87.2-128-118.4-218.4-95.2-277.6 27.2-68.8 128-150.4 323.2-153.6 124.8-1.6 287.2 36.8 336.8 152.8 54.4 129.6-208 428.8-289.6 516.8-10.4 12-24.8 18.4-40.8 18.4z m4-648h-9.6c-164.8 2.4-262.4 66.4-287.2 128-36 92 148.8 334.4 281.6 475.2 4 4 8.8 4.8 11.2 4.8 2.4 0 7.2-0.8 11.2-4.8 228.8-248 306.4-416.8 282.4-474.4-25.6-60-116.8-128.8-289.6-128.8z"  /><path d="M430.4 892.8a72 48 0 1 0 144 0 72 48 0 1 0-144 0Z"  /><path d="M408 578.4m-48 0a48 48 0 1 0 96 0 48 48 0 1 0-96 0Z"  /><path d="M600 578.4m-48 0a48 48 0 1 0 96 0 48 48 0 1 0-96 0Z"  /><path d="M542.4 911.2c-5.6 0-10.4-4-12-8.8-1.6-6.4 2.4-12.8 8.8-14.4l256-62.4c6.4-1.6 12.8 2.4 14.4 8.8 1.6 6.4-2.4 12.8-8.8 14.4l-256 62.4h-2.4z"  /><path d="M820 932l-278.4-12.8c-6.4 0-12-5.6-11.2-12.8 0-6.4 6.4-12 12.8-11.2l278.4 12.8c6.4 0 12 5.6 11.2 12.8-0.8 6.4-6.4 11.2-12.8 11.2z"  /><path d="M782.4 1018.4c-1.6 0-3.2 0-4.8-0.8l-240.8-99.2c-6.4-2.4-8.8-9.6-6.4-16 2.4-6.4 9.6-8.8 16-6.4l240.8 99.2c6.4 2.4 8.8 9.6 6.4 16-1.6 4.8-6.4 7.2-11.2 7.2zM460 911.2h-3.2l-256-62.4c-6.4-1.6-10.4-8-8.8-14.4 1.6-6.4 8-10.4 14.4-8.8l256 62.4c6.4 1.6 10.4 8 8.8 14.4-0.8 4.8-5.6 8.8-11.2 8.8z"  /><path d="M182.4 932c-6.4 0-12-4.8-12-11.2 0-6.4 4.8-12 11.2-12.8l278.4-12.8c6.4 0 12 4.8 12.8 11.2 0 6.4-4.8 12-11.2 12.8l-279.2 12.8z"  /><path d="M220 1018.4c-4.8 0-8.8-2.4-11.2-7.2-2.4-6.4 0-12.8 6.4-16L456 896c6.4-2.4 12.8 0 16 6.4s0 12.8-6.4 16l-240.8 99.2c-1.6 0.8-3.2 0.8-4.8 0.8z"  /><path d="M414.4 568m-8 0a8 8 0 1 0 16 0 8 8 0 1 0-16 0Z" fill="#FFFFFF" /><path d="M428 578.4m-8 0a8 8 0 1 0 16 0 8 8 0 1 0-16 0Z" fill="#FFFFFF" /><path d="M606.4 568m-8 0a8 8 0 1 0 16 0 8 8 0 1 0-16 0Z" fill="#FFFFFF" /><path d="M620 578.4m-8 0a8 8 0 1 0 16 0 8 8 0 1 0-16 0Z" fill="#FFFFFF" /></svg>